<?xml version="1.0" encoding="UTF-8" standalone="no"?>
<!DOCTYPE svg PUBLIC "-//W3C//DTD SVG 1.1//EN" "http://www.w3.org/Graphics/SVG/1.1/DTD/svg11.dtd">
<svg width="100%" height="100%" viewBox="0 0 108 113" version="1.1" xmlns="http://www.w3.org/2000/svg" xmlns:xlink="http://www.w3.org/1999/xlink" xml:space="preserve" xmlns:serif="http://www.serif.com/" style="fill-rule:evenodd;clip-rule:evenodd;stroke-linejoin:round;stroke-miterlimit:2;">
    <g transform="matrix(6.6625,0,0,6.45998,-778.288,-8.10196)">
        <ellipse cx="125" cy="9.874" rx="5" ry="5.157" style="fill:rgb(1,0,0);"/>
    </g>
    <g transform="matrix(0.8,0,0,0.719604,-96,41.8885)">
        <ellipse cx="125" cy="9.874" rx="5" ry="5.157" style="fill:rgb(235,0,55);"/>
    </g>
    <g transform="matrix(1.5,0,0,1.44214,-165.288,84.7543)">
        <ellipse cx="125" cy="9.874" rx="5" ry="5.157" style="fill:rgb(235,0,55);"/>
    </g>
    <g transform="matrix(1.5,0,0,1.44214,-97,80.7543)">
        <ellipse cx="125" cy="9.874" rx="5" ry="5.157" style="fill:rgb(235,0,55);"/>
    </g>
    <g transform="matrix(0.8,0,0,0.719604,-42,101.867)">
        <ellipse cx="125" cy="9.874" rx="5" ry="5.157" style="fill:rgb(235,0,55);"/>
    </g>
    <g transform="matrix(0.8,0,0,0.719604,-36,-3.39443)">
        <ellipse cx="125" cy="9.874" rx="5" ry="5.157" style="fill:rgb(235,0,55);"/>
    </g>
    <g transform="matrix(1.5,0,0,1.44214,-87,12.1909)">
        <ellipse cx="125" cy="9.874" rx="5" ry="5.157" style="fill:rgb(235,0,55);"/>
    </g>
    <g transform="matrix(1.5,0,0,1.44214,-164.013,-2.68224)">
        <ellipse cx="125" cy="9.874" rx="5" ry="5.157" style="fill:rgb(235,0,55);"/>
    </g>
    <g transform="matrix(0.8,0,0,0.719604,-88.0132,68.1778)">
        <ellipse cx="125" cy="9.874" rx="5" ry="5.157" style="fill:rgb(235,0,55);"/>
    </g>
    <g transform="matrix(0.8,0,0,0.719604,4,60.7563)">
        <ellipse cx="125" cy="9.874" rx="5" ry="5.157" style="fill:rgb(235,0,55);"/>
    </g>
</svg>
